<svg xmlns="http://www.w3.org/2000/svg" viewBox="0 0 134.04 19.17"><title>brush</title><path d="M39.23,2.22Z" fill="#010101"/><path d="M83.22.76h0a2,2,0,0,1,.09-.5Z" fill="#010101"/><path d="M90.3,2h0C90.34,1.94,90.34,1.82,90.3,2Z" fill="#010101"/><path d="M66.91,2.62c-.06,0-.09,0-.12.1A.58.58,0,0,1,66.91,2.62Z" fill="#010101"/><path d="M26.26,3.29h0l-.08-.12Z" fill="#010101"/><path d="M26.4,3c.16.14,0,.28-.11.32.17.27.34.29.52.17C26.81,3.13,26.48,3.18,26.4,3Z" fill="#010101"/><path d="M2.74,4.15,2.81,4A.33.33,0,0,0,2.74,4.15Z" fill="#010101"/><path d="M67.61,17.78l-.11.07a.09.09,0,0,0,.11-.07Z" fill="#010101"/><path d="M6.45,4.45V4A2,2,0,0,0,6.45,4.45Z" fill="#010101"/><path d="M83.35.25v0Z" fill="#010101"/><path d="M96.83,2.32a2.41,2.41,0,0,0,0,.38h0Z" fill="#010101"/><path d="M129.79,10.11V9.92l-.13.35A.26.26,0,0,0,129.79,10.11Z" fill="#010101"/><path d="M105.8,4.45V4.28c-.15-.17-.55-.2-1.07-.19V4.7Z" fill="#010101"/><path d="M115.61,18.47l-1-1.21c3.06-.56,4.5.65,7.12-.32l-.14.26c.38.28.59-2.44,4.82.88v.12c.15,0,.14-.26.44.06l-.73-.74c.43-.3.82-.88,1.4-1a1,1,0,0,1,.18.57l1.43-.2.44.78c.43-.42.23-2.07,1.4-1.15-.44-1.15.58-.69.44-1.27.06.14.19.35.3.55.7-.13,2-.46,2.33-1a25.82,25.82,0,0,1-3.45-3.64c1,.31.26-.14.06-.52l-.06.28c-.59-.28-.59-1-.88-1.2v.11a.45.45,0,0,1,0,.28c0,.16,0,.28-.18.24v-.08a1.54,1.54,0,0,1-.85-.06v-.6c-.44,1.15-2.93-1.76-3.51-1.79-.59-.76-1.31.18-2-.2-1.16-.19-.58-.88-1.17-1.4s.15.71-.14.75l-.72-.84c.51-.07.24-.44.14-.67-.76-.1-2-1.21-2.18,0-1-.57-1-1.06-1.47-1.12.15.22.44.42.44.67-.41-.53-.19.13,0,.25-.63.52-3.25-2.2-3.38-.88V4.13c-.14,1,.09,1.94-.35,2.49L114,6.18l-.51.38a.71.71,0,0,1-.14-.7c-.72.45-1.72-.09-2.58-.22l.92,2.68c-.73-.62-2-1.88-2.2-1l-.4-.88c-1.47-1.72-1,.75-1.61.23l-.73-1h.73a8,8,0,0,1-1.61-1.46h0a.29.29,0,0,1,.08.14h-.11a.92.92,0,0,1-1,.79c-.73-.14-1.31.59-2.47-.45l-.29,1-.88-.6v-.8c.86,0,2.47-.26,3.58-.3V3.63c-.66,0-1.4.35-1.83.27-.22-.15-.75-1-.36-1.53l-.41.79a7.32,7.32,0,0,1-4.48-.78l.2.4c-.45.24-.9.47-1-.18A5.67,5.67,0,0,1,93.22,1L93,1.89c-.29,0-.73-1.48-.87-.16l-.61.42c-.4-.07-.64.46-1.09-.08h0L90.38,2V2c-.89-.42,0,.84-1,.3-.33-.67-.36,1.2-.86,1L88,2c-.9-.77-1.05.58-2.37.59A2.38,2.38,0,0,1,85.09,0c-.57,1.24-.26.8-1,1.4A1.41,1.41,0,0,1,84.22.32c-.68-.59-.42.46-.93.43a11,11,0,0,1-.48,2.55l.2.3c-.54.52-1.13.75-1.76.27V3.39l-.67.24V3l-1,.19.13.17a1.64,1.64,0,0,1-1.37,0V3c-1.18-1.07-2.16.34-3.55.45l.19-.7c-.48-.7-.13,1.08-.7.73V2.62c-.49,1.13-.64-.24-1-.67l.16,1.13-.64-.24c-.71-.37-.44-1.42-.33-2L72,1.72l-.09-1c-.35,1.16-.35-.19-1,.43,0-.37.1-.59-.11-.75l-1,1.41.61-.63-.07,1.46c-.64,1.1-.87-.16-1.33.24l.32-.43c-.75.36-.79-.26-1.21-.58.13.27.33.67,0,.86s-.12-.51-.33-.67c0,1-.59,1.48-1.07,1a1.09,1.09,0,0,1,0-.36c-.12.16-.18.41-.4.17l.13-1.07L66,2.8c-.27-.29-.68.49-.64-.24l.16-.21-2.1-.26V1.23c-.2,1.18-1.14-.45-1.07,1C62,1.42,60.8,2.79,61,1.13c-1.38-.13-2.12,1.47-3.8.66C56.65.38,55,.79,53.94.68c-2.1.6-3.46,1.13-5.6,1.58-1.29-2-3.22.68-4.61-.43l-.38.78c-.92-1.25-2.33.28-3.63-.94a1.8,1.8,0,0,1-.55.48c.06,0,.14.19.17.69-.37-.35-1.12.09-1.06-.91l.09-.1c.06-1-1.12.46-1.53-.4l.25,1.13-.7-.18.19-.21c-3,2.37-4.42-1-7.27,1.15.37-1.16-.57.61-.6-.66-.73-1.6-1.34.34-1.93.77a.89.89,0,0,1,0,.23l-1-.15c.61-1.61-.75,1.33-.18,0-2.69-1.21-6.21,0-9.33-.54l.14.42c-.79-.08-1.77.42-2.37-.24s-1.32,1-1.55,1.12c-.66.71-1.25-.71-1-.64-.7.2-1.37,1.67-2.34,1C8.82,3.27,6.49,6,6.46,4.43v.13C5.21,3.48,4,5.32,2.68,4.34a1.8,1.8,0,0,1,.08-.21L0,8.81l.78,5.12L3.15,18.1l6.43-.9,5.14,1.62,12.49-.55.88-1.15c2.46,2,5.61-.31,8.25,1.14l.06-1c.74-.06.69.56.88.73,6.93-.22,14.08-1.55,20.32-.29.6.66,2.43.27,2.9,1a10.19,10.19,0,0,1,6.22-1.14l-.08.11,1-.2a.34.34,0,0,1,0,.28c1.08-.88,2.78,0,4.1.35l-.08.11c7.7.18,14.86-1.68,22.5-.29,3.55,1.63,7.68-.62,11.76.74C106.64,19.68,114.88,18.93,115.61,18.47Z" fill="#e79e85" opacity="0.2"/><path d="M127.75,17.13h0C127.72,17.56,127.76,17.4,127.75,17.13Z" fill="#010101"/><path d="M110.72,5.67h0l-.2-.59Z" fill="#010101"/><path d="M121.63,5.32c-.49-.13-.52,0-.45.14A.51.51,0,0,0,121.63,5.32Z" fill="#010101"/><path d="M131.75,16.33c.26,0,.16-.21,0-.49l-.44.07C131.46,16,131.6,16.23,131.75,16.33Z" fill="#010101"/><path d="M130.7,10.64l.08-.34A.24.24,0,0,0,130.7,10.64Z" fill="#010101"/></svg>