<?xml version="1.0" encoding="utf-8"?>
<!-- Generator: Adobe Illustrator 23.0.5, SVG Export Plug-In . SVG Version: 6.00 Build 0)  -->
<svg version="1.1" id="Layer_1" xmlns="http://www.w3.org/2000/svg" xmlns:xlink="http://www.w3.org/1999/xlink" x="0px" y="0px"
	 viewBox="0 0 54.2 47.6" style="enable-background:new 0 0 54.2 47.6;" xml:space="preserve">
<style type="text/css">
	.st0{fill:#BB5A5A;}
	.st1{fill:#BB5A5A;stroke:#FFFFFF;stroke-width:0.3;stroke-miterlimit:10;}
</style>
<title>laura-gomez-frontend-developer</title>
<path class="st0" d="M11.4,16.4c-4.8,10.3-0.3,22.6,10,27.4c4.1,1.9,8.7,2.4,13.2,1.4c3.5-0.8,6.8-2.3,9.5-4.6
	c8.6-7.4,9.6-20.4,2.2-29.1c-2.4-2.8-5.5-4.9-8.9-6.1c-4-1.3-8.2-1.4-12.2-0.3c-1,0.3-2.1,0.6-3.1,1C22.3,6,22.5,6,22.6,5.9
	c2.3-1,4.8-1.5,7.3-1.5c11.4-0.1,20.7,9,20.8,20.4c0.1,8.9-5.6,16.9-14,19.7c-3.5,1.2-7.3,1.2-10.9,0.4c-11-2.6-17.9-13.7-15.2-24.8
	c0.3-1.3,0.8-2.6,1.4-3.9c-0.1,0-0.2,0.1-0.3,0.1C11.6,16.3,11.4,16.3,11.4,16.4z"/>
<path class="st0" d="M15.2,10.6c0.4,0.2,0.5,0.7,0.3,1s-0.5,0.6-0.8,0.8c-1,0.9-2,1.8-2.9,2.7c-1,1-2,2-2.8,3.1
	c-0.2,0.3-0.4,0.6-0.5,1c0,0.1-0.1,0.4,0,0.5s0.2,0.1,0.3,0.1c0.3,0,0.5-0.1,0.7-0.2c1-0.5,1.6-1.5,2-2.4c0.2-0.4,0.6-1.8-0.3-1.6
	c-0.6,0.1-1.2,0.4-1.7,0.8c-0.7,0.5-1.4,1.1-2,1.8c-0.5,0.5-0.9,1-1.5,1.5c-0.2,0.2-0.5,0.3-0.7,0.5c-0.1,0-0.1,0-0.2,0.1
	c-0.1,0-0.3,0.1,0,0s0.1,0,0,0s-0.3,0-0.4,0c-0.6,0-1.2-0.2-1.5-0.7c-0.2-0.4-0.1-0.9,0.1-1.3c0.1-0.2,0.2-0.3,0.2-0.5
	c-0.1-0.2-0.2-0.3-0.3-0.4c-0.3-0.3-0.7-0.5-0.8-0.9c-0.1-0.5,0.3-1,0.6-1.4c0.4-0.5,0.8-0.9,1.3-1.3c0.3-0.2,0.6-0.4,1-0.5
	c0.1,0,0.4-0.1,0,0c0.1,0,0.2,0,0.3-0.1c0.2,0,0.5-0.1,0.7-0.1c0.4,0,0.9,0,1.3,0c0.1,0,0.4,0,0.5,0.2c0.2,0.2-0.6,0.4-0.7,0.5
	c0,0,0.4-0.1,0.2-0.1H7.5c-0.1,0-0.2,0-0.2,0c-0.1,0-0.3,0-0.4,0.1c-0.4,0-0.7,0-1-0.1c-0.6-0.2-1.3-0.6-1.6-1.2
	c-0.3-0.6-0.1-1.1,0.3-1.6s1-0.8,1.5-1.2c0.5-0.3,1-0.7,1.4-1.1C7.8,7.9,7.8,7.5,7.7,7C7.6,6.4,7.4,5.7,7.2,5.1C7,4.6,6.9,4,6.9,3.4
	c0-0.2,0-0.4,0.1-0.5c0-0.1,0.1-0.1,0.2-0.1h0.1h0.1c0.1-0.2-0.7,0-0.4,0c1.1-0.1,2.2,0.4,3,1c1.3,1,2,2.4,2.3,3.9
	c0.4,1.5,0.5,2.9,0.5,4.4c0,0.4-0.1,0.9-0.1,1.3c0.1,0,0.2-0.1,0.3-0.1c0,0,0.2,0,0.3-0.1c0.3-0.6,0.5-1.2,0.6-1.9
	c0.4-1.5,0.5-3.1,0.4-4.6s-0.4-3-1.2-4.3c-0.2-0.3-0.4-0.6-0.8-0.8c-0.3-0.2-0.5-0.1-0.8,0S11,1.8,11,2.1s-0.1,0.7-0.3,1
	c-0.1,0.1-0.1,0.1-0.2,0.2c-0.2,0.1-0.4,0.1,0.4-0.1c-0.2,0-0.3,0.1-0.5,0.1c0.3-0.1,0.6-0.1,0.8-0.4c0.2-0.2,0.3-0.5,0.3-0.8
	c0-0.2,0.1-0.3,0.1-0.5c0.1-0.1,0.1-0.1,0.2-0.2c0,0-0.6,0.1-0.4,0.1h0.1c0.1,0,0.1,0,0.2,0c0.3,0.1,0.6,0.4,0.7,0.6
	c0.8,1.1,1.2,2.6,1.3,3.9c0.2,1.6,0.1,3.3-0.2,4.9c-0.2,0.8-0.4,1.6-0.7,2.3l0.5-0.1c0.1-0.5,0.1-0.9,0.1-1.4c0-0.7,0-1.4-0.1-2.2
	c-0.2-1.6-0.5-3.3-1.4-4.7C11,3.9,9.9,3,8.5,2.7c-0.4-0.1-0.9-0.1-1.3,0C6.9,2.8,6.5,2.8,6.4,3.3s0.1,1.1,0.2,1.6
	c0.2,0.7,0.4,1.3,0.5,2c0.1,0.5,0.3,1,0,1.5C6.9,8.9,6.3,9.2,5.8,9.6c-0.9,0.6-2.6,1.5-2,2.8c0.3,0.6,1,1.1,1.6,1.3s1.2,0.2,1.8,0
	c0.4-0.1,1-0.2,1.4-0.4C9,13,8.4,12.9,8.2,12.8c-0.8-0.1-1.6,0-2.4,0.1c-0.7,0.1-1.4,0.4-2,0.8c-0.5,0.3-1,0.8-1.3,1.3
	c-0.3,0.5-0.7,1-0.5,1.5c0.2,0.4,0.6,0.6,0.9,0.9c0.1,0.1,0.2,0.3,0.2,0.4c0,0.2-0.2,0.4-0.3,0.6c-0.1,0.4-0.1,1,0.2,1.3
	c0.4,0.5,1.1,0.6,1.7,0.5s1.1-0.3,1.6-0.6c0.5-0.4,1-0.9,1.4-1.4c0.6-0.6,1.2-1.3,1.9-1.8c0.3-0.3,0.7-0.5,1.1-0.7
	c0.1-0.1,0.3-0.1,0.4-0.2c-0.6,0.2-0.4,0.1-0.2,0.1H11c0.3,0.1,0.3,0.5,0.3,0.7c-0.1,0.5-0.3,1-0.5,1.4c-0.3,0.5-0.6,0.9-1,1.3
	c-0.2,0.2-0.4,0.4-0.7,0.5c0,0-0.1,0-0.1,0.1H8.9c-0.2,0.1,0.6-0.1,0.4-0.1c-0.1,0-0.1,0-0.2,0c-0.4-0.2,0.2-1.1,0.3-1.3
	c0.4-0.6,0.8-1.2,1.3-1.7c1-1.1,2.1-2.1,3.2-3.1c0.5-0.4,0.9-0.8,1.4-1.2c0.3-0.2,0.6-0.5,0.8-0.8c0.2-0.4,0.2-0.9-0.3-1
	c0,0-0.2,0.1-0.3,0.1S15.2,10.6,15.2,10.6L15.2,10.6z"/>
<path class="st0" d="M33.3,18c0.9,0,1.7,0.1,2.2,0.4c0.6,0.3,1.1,0.6,1.6,1c0.1,0.1,0.3,0.2,0.4,0.2c0.3,0,0.4-0.4,0.5-1.3h0.5
	c0,0.5,0,1.2-0.1,1.9s0,1.7,0,3h-0.5c-0.1-0.6-0.2-1.2-0.4-1.7c-0.1-0.5-0.4-1-0.7-1.4c-0.4-0.5-1-1-1.6-1.2
	c-0.7-0.3-1.4-0.4-2.1-0.4c-0.7,0-1.3,0.2-1.9,0.5c-0.6,0.4-1.1,0.9-1.5,1.5c-0.4,0.7-0.8,1.5-0.9,2.4c-0.2,1-0.3,2.1-0.3,3.1
	c0,2.6,0.4,4.4,1.2,5.6c0.8,1.2,2.1,1.8,3.8,1.8c0.5,0,0.9-0.1,1.3-0.2c0.3-0.1,0.6-0.3,0.9-0.4c0.2-0.1,0.4-0.3,0.5-0.5
	s0.1-0.4,0.1-0.6v-2c0-0.4,0-0.9-0.2-1.3c-0.1-0.3-0.3-0.5-0.6-0.6c-0.4-0.1-0.9-0.2-1.4-0.2v-0.4c0.3,0,0.6,0,0.9,0h1.1
	c0.4,0,0.7,0,1,0c0.5,0,0.9,0,1.3,0c0.4,0,0.7,0,0.9,0v0.4c-0.2,0-0.5,0-0.7,0.1s-0.3,0.3-0.3,0.5c-0.1,0.4-0.1,0.8-0.1,1.2v4.2
	h-0.4c0-0.3-0.1-0.5-0.2-0.8c-0.1-0.3-0.2-0.4-0.4-0.4c-0.1,0-0.2,0-0.3,0.1c-0.2,0.1-0.3,0.2-0.4,0.3c-0.5,0.3-1,0.6-1.5,0.8
	c-0.6,0.2-1.2,0.3-1.8,0.3c-1.5,0-2.7-0.3-3.8-0.9c-1-0.6-1.9-1.5-2.4-2.6c-0.6-1.1-0.8-2.5-0.8-4.1c0-1.7,0.3-3.1,0.9-4.3
	c0.5-1.1,1.4-2.1,2.4-2.8C30.9,18.3,32.1,18,33.3,18z"/>
<path class="st1" d="M26.2,16.4v0.4c-0.4,0-0.7,0-1.1,0.2c-0.2,0.1-0.4,0.3-0.5,0.5c-0.1,0.4-0.1,0.8-0.1,1.2v10.5
	c0,0.4,0,0.8,0.1,1.1c0.1,0.2,0.3,0.4,0.5,0.5c0.4,0.1,0.7,0.1,1.1,0.1h1.5c0.5,0,1.1-0.1,1.6-0.2c0.4-0.1,0.7-0.4,1-0.7
	c0.3-0.4,0.5-0.8,0.6-1.2c0.1-0.6,0.2-1.2,0.3-1.9h0.5c0,0.4-0.1,1-0.1,1.7c0,0.3,0,0.7,0,1.2s0.1,1,0.1,1.6c-0.7,0-1.5,0-2.4-0.1
	c-0.9,0-1.7,0-2.4,0h-1.2c-0.5,0-1,0-1.6,0h-1.7c-0.6,0-1.1,0-1.7,0V31c0.4,0,0.7-0.1,1.1-0.2c0.2-0.1,0.4-0.3,0.5-0.5
	c0.1-0.4,0.1-0.8,0.1-1.1V18.7c0-0.4,0-0.8-0.1-1.2c-0.1-0.2-0.3-0.4-0.5-0.5c-0.4-0.1-0.7-0.2-1.1-0.2v-0.4c0.3,0,0.7,0,1.2,0
	s1,0,1.5,0s1,0,1.5,0C25.4,16.5,25.8,16.4,26.2,16.4z"/>
</svg>
