<?xml version="1.0" encoding="utf-8"?>
<!-- Generator: Adobe Illustrator 23.0.5, SVG Export Plug-In . SVG Version: 6.00 Build 0)  -->
<svg version="1.1" id="Layer_1" xmlns="http://www.w3.org/2000/svg" xmlns:xlink="http://www.w3.org/1999/xlink" x="0px" y="0px"
	 viewBox="0 0 3.85 4.19" style="enable-background:new 0 0 3.85 4.19;" xml:space="preserve">
<style type="text/css">
	.st0{fill:#E7D4C8;}
	.st1{fill:#EADAD0;}
	.st2{fill:#ECDDD4;}
	.st3{fill:#E9D7CD;}
	.st4{fill:#ECDED5;}
	.st5{fill:#E8D6CC;}
	.st6{fill:#E9D6CC;}
	.st7{fill:#E9D8CD;}
	.st8{fill:#F1E6E0;}
	.st9{fill:#E9D8CE;}
	.st10{fill:#F1E7E0;}
	.st11{fill:#E8D5CA;}
	.st12{fill:#EEDFD8;}
	.st13{fill:#EEDFD7;}
	.st14{fill:#FBF8F6;}
	.st15{fill:#F3EAE5;}
	.st16{fill:#EBDCD2;}
	.st17{fill:#E5D1C5;}
	.st18{fill:#F1E6DF;}
	.st19{fill:#EFE1DA;}
	.st20{fill:#F2E8E1;}
	.st21{fill:#EFE3DB;}
	.st22{fill:#F0E4DD;}
	.st23{fill:#E6D1C5;}
	.st24{fill:#EBDBD2;}
	.st25{fill:#F3E9E4;}
	.st26{fill:#F0E3DB;}
	.st27{fill:#F6F0ED;}
	.st28{fill:#ECDBD3;}
	.st29{fill:#F4EDE8;}
	.st30{fill:#EEDED5;}
	.st31{fill:#EFE1D9;}
	.st32{fill:#EFE1DB;}
	.st33{fill:#E5CFC3;}
	.st34{fill:#EEDFD6;}
	.st35{fill:#F1E4DD;}
	.st36{fill:#EEE1D9;}
	.st37{fill:#EBDBD1;}
	.st38{fill:#F5EEE8;}
	.st39{fill:#F3EAE4;}
	.st40{fill:#F9F6F3;}
	.st41{fill:#EEE0D8;}
	.st42{fill:#EDDED5;}
	.st43{fill:#FAF7F5;}
	.st44{fill:#EAD9CF;}
	.st45{fill:#F3ECE7;}
	.st46{fill:#F6F0EB;}
	.st47{fill:#F7F1EE;}
	.st48{fill:#F8F3F0;}
	.st49{fill:#F7F2EE;}
	.st50{fill:#F5EDE9;}
	.st51{fill:#F7F3EE;}
	.st52{fill:#E8D6CA;}
	.st53{fill:#E6D2C7;}
	.st54{fill:#F5EEE9;}
</style>
<g>
	<path class="st0" d="M0.69,2.77c0,0.02,0.01,0.03,0.01,0.05c0,0.02,0,0.03-0.02,0.03c-0.02,0-0.02,0.03-0.04,0.04
		c-0.03,0.01-0.06,0.04-0.1,0.02c-0.01-0.01-0.04,0-0.05-0.01C0.48,2.88,0.46,2.85,0.44,2.83C0.43,2.82,0.43,2.8,0.44,2.78
		c0.01-0.02,0.02-0.01,0.04,0c0.01,0,0.02,0,0.03-0.01c0.03-0.02,0.04-0.01,0.05,0.02c0,0.02,0.02,0.03,0.03,0.04c0,0,0,0,0,0
		C0.55,2.79,0.51,2.75,0.57,2.7c-0.02,0-0.05,0-0.05-0.03C0.55,2.65,0.58,2.65,0.6,2.66C0.63,2.69,0.67,2.7,0.69,2.74
		C0.7,2.75,0.7,2.76,0.69,2.77z"/>
	<path class="st1" d="M2.74,2.46c0.05-0.03,0.11-0.03,0.15,0.01C2.92,2.51,2.94,2.55,2.92,2.6C2.91,2.65,2.84,2.69,2.8,2.69
		c0,0-0.01,0-0.01-0.01c0-0.01-0.01-0.03,0.01-0.04c0.01-0.01,0.03,0,0.04-0.01c0.01,0,0.02-0.01,0.01-0.01
		C2.83,2.6,2.84,2.62,2.84,2.63c0,0,0,0,0,0.01C2.82,2.64,2.81,2.63,2.8,2.62c0,0,0-0.01,0-0.01c0-0.02,0.02-0.03,0.02-0.05
		C2.8,2.54,2.75,2.57,2.78,2.51c0,0,0,0,0,0C2.75,2.49,2.75,2.48,2.74,2.46z"/>
	<path class="st2" d="M0.99,1.44C1,1.45,1.01,1.45,1.02,1.45c0.05,0.01,0.09,0.05,0.1,0.1c0,0.04-0.05,0.09-0.09,0.1
		C1,1.61,0.96,1.58,0.91,1.57c0-0.03,0.01-0.05,0.03-0.07c0.03-0.03,0.02,0.01,0.03,0.01c0-0.01-0.01-0.02,0-0.04
		C0.99,1.47,0.97,1.44,0.99,1.44z"/>
	<path class="st3" d="M2.12,3.7c0.03,0.01,0.05,0.03,0.05,0.06C2.18,3.8,2.15,3.82,2.13,3.85C2.09,3.87,2.05,3.87,2.02,3.84
		C2.01,3.84,2.01,3.83,2,3.83c-0.02,0-0.02-0.01-0.01-0.03c0-0.01,0.01-0.01,0.01-0.02c0-0.05,0.04-0.06,0.07-0.08
		c0.01,0,0.02-0.01,0.03-0.01C2.1,3.68,2.11,3.69,2.12,3.7z"/>
	<path class="st4" d="M2.73,2.39c-0.03,0-0.07-0.04-0.07-0.07c0-0.06,0.03-0.09,0.07-0.09c0.04,0,0.08,0.05,0.08,0.09
		C2.81,2.36,2.77,2.39,2.73,2.39z"/>
	<path class="st5" d="M2.87,3.38c0.04-0.04,0.09-0.04,0.12,0c0.02,0.03,0,0.08-0.03,0.09C2.94,3.47,2.93,3.47,2.93,3.49
		c0,0.01-0.01,0.02-0.02,0.03c-0.02,0-0.04,0.01-0.06-0.01c-0.01-0.01-0.02-0.03,0-0.05C2.85,3.44,2.87,3.41,2.87,3.38z"/>
	<path class="st6" d="M0.53,2.67C0.54,2.68,0.54,2.7,0.57,2.68C0.58,2.67,0.59,2.7,0.6,2.7c0,0.01-0.01,0.02-0.01,0.01
		C0.55,2.7,0.57,2.75,0.55,2.76c0.04,0.01,0.01,0.06,0.04,0.07c0.01,0,0.01-0.01,0.02,0c-0.04,0.03-0.07,0-0.08-0.07
		C0.5,2.78,0.48,2.81,0.45,2.78C0.42,2.82,0.46,2.84,0.47,2.86C0.49,2.87,0.49,2.89,0.49,2.9C0.46,2.88,0.46,2.85,0.43,2.82
		c0,0,0-0.01,0-0.02C0.43,2.76,0.44,2.72,0.48,2.7C0.5,2.69,0.5,2.67,0.53,2.67z"/>
	<path class="st1" d="M2.21,3.97c-0.04-0.05-0.03-0.1,0.02-0.14c0.04-0.03,0.08-0.01,0.12,0c0.02,0-0.01,0.02,0,0.03
		c0.02,0.02,0.01,0.05,0,0.08C2.34,3.93,2.33,3.88,2.3,3.93C2.3,3.94,2.29,3.95,2.28,3.94C2.27,3.92,2.26,3.91,2.24,3.9
		C2.24,3.93,2.24,3.96,2.21,3.97z"/>
	<path class="st6" d="M2.74,2.46c0.04,0,0.03,0.02,0.02,0.05c0.02,0.01,0.02-0.02,0.03-0.02c0,0.02-0.01,0.03-0.02,0.05
		c0.02,0.01,0.04,0,0.05-0.01C2.83,2.56,2.82,2.58,2.8,2.61c-0.04,0.02-0.07,0-0.1-0.02C2.7,2.58,2.69,2.57,2.69,2.57
		c0,0-0.01,0-0.01-0.01C2.68,2.52,2.7,2.48,2.74,2.46z"/>
	<path class="st7" d="M2.03,3.32c-0.02,0-0.02,0.01-0.03,0.02c-0.04,0.02-0.1-0.01-0.1-0.05c0-0.01,0.04-0.06,0.06-0.06
		c0.03,0,0.05,0,0.07,0.03c0.01,0.01,0.01,0.02,0.02,0.03C2.05,3.3,2.03,3.31,2.03,3.32z"/>
	<path class="st8" d="M0.57,1.21c-0.01,0.01,0,0.02,0.01,0.03C0.59,1.26,0.58,1.29,0.56,1.3c-0.02,0.01-0.04,0-0.05-0.02
		C0.51,1.26,0.5,1.24,0.49,1.22C0.47,1.2,0.46,1.18,0.48,1.16c0.01-0.02,0.03-0.03,0.05-0.02c0.02,0,0.03,0.02,0.04,0.04
		C0.57,1.19,0.57,1.2,0.57,1.21z"/>
	<path class="st9" d="M0.5,2.45C0.48,2.43,0.49,2.42,0.51,2.42c0.06-0.02,0.12,0.03,0.11,0.1c0,0.02-0.02,0.02-0.03,0.03
		C0.55,2.57,0.52,2.55,0.51,2.51c0.01-0.01,0.02,0,0.03,0c0.01,0,0.01,0.01,0.02,0c0,0,0-0.01-0.01-0.01
		C0.53,2.49,0.52,2.46,0.5,2.45z"/>
	<path class="st10" d="M3.4,1.38c-0.02,0-0.05-0.03-0.05-0.06c0-0.03,0.02-0.06,0.05-0.06c0.02,0,0.06,0.05,0.06,0.07
		C3.45,1.36,3.43,1.38,3.4,1.38z"/>
	<path class="st11" d="M1.85,3.06C1.8,3.04,1.79,3,1.82,2.96c0.01-0.01,0.02-0.02,0.03-0.02c0.03-0.01,0.05-0.01,0.08,0
		c0.02,0.01,0.01,0.02,0.01,0.03c0,0.01-0.01,0.01-0.02,0.02c-0.02,0-0.03,0-0.03,0.03C1.89,3.03,1.89,3.07,1.85,3.06z"/>
	<path class="st12" d="M2.05,3.67C2.02,3.65,2.03,3.63,2.03,3.61c0.01-0.04,0.01-0.04,0.06-0.05c0.01,0.02,0.04-0.02,0.05,0.01
		c0.01,0.03-0.03,0.09-0.06,0.09C2.07,3.67,2.06,3.68,2.05,3.67z"/>
	<path class="st13" d="M2.01,2.56C2.02,2.59,2.04,2.6,2.04,2.63c0,0.02,0.02,0.03,0,0.05C2,2.69,1.95,2.68,1.94,2.66
		c-0.02-0.03,0-0.06,0.04-0.07C1.99,2.59,2,2.58,2.01,2.56z"/>
	<path class="st14" d="M2.05,3.67c0.07,0,0.07-0.05,0.09-0.1C2.12,3.56,2.1,3.58,2.09,3.56c0,0,0,0,0,0
		c0.02-0.01,0.05-0.01,0.07,0.01c0,0.02-0.01,0.05,0.03,0.05c0.01,0.01,0.03,0,0.04,0.01C2.23,3.66,2.2,3.66,2.2,3.69
		c-0.03-0.01,0-0.03-0.01-0.05c-0.02,0.03-0.06,0-0.07,0.05c-0.01,0-0.02,0-0.03-0.01C2.08,3.67,2.06,3.69,2.05,3.67z"/>
	<path class="st15" d="M2.83,0.66c0-0.01-0.01-0.02,0.01-0.02c0.02,0,0.04,0,0.03-0.03c0,0,0.03-0.01,0.05-0.01
		c0.01,0,0.02,0.01,0.03,0.03c0,0.02,0,0.03-0.02,0.03c-0.01,0-0.02,0.01-0.03,0.02c0,0.01,0,0.03-0.02,0.03
		c-0.02,0-0.03-0.01-0.04-0.02C2.82,0.67,2.83,0.66,2.83,0.66z"/>
	<path class="st11" d="M0.91,1.57c0.02-0.01,0.03-0.01,0.05,0C0.98,1.59,1,1.6,1.03,1.62c0.01,0.01,0.01,0.02,0,0.03
		c-0.03,0-0.07-0.02-0.11,0c-0.01,0-0.02,0-0.02-0.01C0.91,1.62,0.91,1.6,0.91,1.57C0.91,1.58,0.91,1.57,0.91,1.57z"/>
	<path class="st16" d="M2.24,3.63c-0.02,0-0.03,0.01-0.05,0C2.16,3.62,2.15,3.6,2.17,3.57c0-0.01-0.01-0.02-0.01-0.02
		c0.02-0.01,0.07-0.01,0.08,0.01C2.27,3.58,2.26,3.61,2.24,3.63z"/>
	<path class="st17" d="M2.71,2.58C2.74,2.59,2.77,2.6,2.8,2.61c0,0,0,0.01,0,0.01c0,0.01,0,0.02-0.01,0.03
		C2.78,2.65,2.8,2.67,2.79,2.68c-0.01,0-0.02,0-0.04,0.01C2.7,2.66,2.68,2.61,2.71,2.58z"/>
	<path class="st18" d="M2.54,1.17C2.54,1.16,2.52,1.14,2.56,1.14c0.02,0,0.04-0.01,0.06,0c0.03,0.02,0.04,0.04,0.03,0.07
		C2.64,1.24,2.6,1.25,2.57,1.24C2.57,1.21,2.6,1.18,2.54,1.17z"/>
	<path class="st13" d="M2.95,2.86c0.01-0.03,0.03-0.03,0.06-0.02c0.02,0.01,0.02,0.03,0.01,0.04C3.01,2.93,2.99,2.94,2.95,2.92
		C2.93,2.89,2.93,2.89,2.95,2.86C2.96,2.86,2.95,2.86,2.95,2.86z"/>
	<path class="st9" d="M0.86,2.91c0-0.01,0-0.01,0-0.02c-0.01-0.01,0-0.02,0-0.02C0.87,2.85,0.9,2.86,0.92,2.85
		c0.02,0,0.04-0.01,0.06-0.02C0.97,2.82,0.94,2.82,0.95,2.79c0,0,0.01,0,0.01,0c0,0,0.01,0.01,0.01,0.01C1,2.81,1.01,2.82,1.01,2.84
		c0,0.03,0,0.06-0.04,0.08c-0.01,0-0.01,0.01-0.02,0.01c-0.01-0.01,0-0.02-0.01-0.03C0.92,2.91,0.91,2.93,0.89,2.9
		C0.88,2.89,0.87,2.92,0.86,2.91z"/>
	<path class="st19" d="M1.99,2.28c0-0.02,0.01-0.03,0.03-0.03c0.03,0,0.06,0.02,0.06,0.04c0,0.02-0.02,0.06-0.03,0.06
		C2.03,2.35,1.99,2.31,1.99,2.28z"/>
	<path class="st20" d="M2.11,0.81c0.03,0.01,0.05,0.03,0.04,0.06c0,0.03-0.02,0.04-0.04,0.04c-0.03,0-0.06-0.03-0.06-0.05
		c0-0.03,0.02-0.04,0.04-0.05C2.1,0.81,2.1,0.81,2.11,0.81z"/>
	<path class="st13" d="M2.28,3.94c0.01,0,0.01-0.01,0.02-0.02c0.03-0.02,0.04,0,0.05,0.03c0,0.02-0.01,0.02-0.02,0.03
		C2.32,3.99,2.31,3.99,2.32,4C2.32,4.01,2.3,4.03,2.29,4.02C2.28,3.99,2.23,4.01,2.22,3.98c0.01-0.02,0-0.05,0.03-0.02
		c0,0,0,0.01,0.01,0.01c0,0,0-0.01,0-0.01C2.26,3.94,2.27,3.94,2.28,3.94z"/>
	<path class="st21" d="M1.08,3.43C1.07,3.44,1.09,3.46,1.06,3.46C1.03,3.46,1,3.44,0.99,3.42c0-0.02,0.03-0.05,0.05-0.05
		C1.06,3.37,1.08,3.41,1.08,3.43z"/>
	<path class="st15" d="M1.45,0.05c0,0.02-0.01,0.04-0.03,0.04c-0.02,0-0.04-0.01-0.05-0.03C1.37,0.04,1.37,0.02,1.39,0.01
		c0.02-0.01,0.04,0,0.06,0.02C1.43,0.04,1.45,0.04,1.45,0.05z"/>
	<path class="st20" d="M2.85,1.13c-0.02,0-0.03-0.03-0.03-0.05c0-0.03,0.02-0.03,0.04-0.03c0.02,0,0.04,0.02,0.04,0.04
		C2.89,1.11,2.87,1.13,2.85,1.13z"/>
	<path class="st22" d="M1.28,2.23c0.01,0.02,0,0.03-0.01,0.05c-0.01,0.01-0.02,0.02-0.04,0c-0.01-0.01-0.02,0-0.03,0
		c-0.01-0.01,0-0.03-0.01-0.04C1.21,2.19,1.23,2.18,1.27,2.2c0,0.01-0.02,0.02-0.02,0.03C1.26,2.24,1.27,2.23,1.28,2.23z"/>
	<path class="st23" d="M0.86,2.91c0.01,0,0.01-0.01,0.01-0.02c0-0.01,0-0.01,0.01-0.02c0.01,0,0.01,0.01,0.01,0.01
		c0,0.01,0.01,0.02,0.02,0.02c0.01,0,0.01-0.01,0.01-0.02c0-0.01,0.01-0.01,0.01-0.01c0.01,0.01,0.03,0.01,0.03,0.03
		c0,0.01-0.01,0.01-0.01,0.02C0.9,2.95,0.89,2.95,0.86,2.91z"/>
	<path class="st24" d="M2.54,3.01c0-0.02,0.01-0.03,0.03-0.03c0.03,0,0.04,0.02,0.04,0.04c0,0.01-0.04,0.04-0.05,0.04
		C2.56,3.06,2.54,3.04,2.54,3.01z"/>
	<path class="st19" d="M2.43,2.34c0.01-0.03,0.04-0.03,0.06-0.02c0.03,0.01,0.03,0.03,0.02,0.06c0,0.02-0.02,0.03-0.04,0.03
		c-0.02,0-0.04-0.01-0.04-0.03c0.01-0.02,0.03,0.01,0.03-0.01C2.47,2.33,2.44,2.34,2.43,2.34z"/>
	<path class="st5" d="M2.28,3.94c-0.01,0.01-0.02,0.02,0,0.04c-0.03,0-0.05,0-0.04-0.03c-0.02,0-0.01,0.02-0.02,0.02
		c0,0-0.01-0.01-0.01-0.01c0.03-0.03,0.01-0.06,0.03-0.1C2.24,3.9,2.29,3.9,2.28,3.94z"/>
	<path class="st22" d="M1.89,1.86c0.02-0.02,0.04-0.02,0.06,0c0.02,0.01,0.03,0.04,0.02,0.06C1.97,1.93,1.95,1.95,1.92,1.95
		C1.91,1.92,1.91,1.89,1.89,1.86z"/>
	<path class="st13" d="M2.71,2.58c-0.01,0.01-0.01,0.03,0,0.04c0.02,0.02,0.02,0.05,0.05,0.07c0,0.02-0.01,0.03-0.03,0.01
		C2.7,2.68,2.68,2.66,2.68,2.62c-0.01-0.02,0-0.04,0.01-0.06C2.7,2.56,2.71,2.57,2.71,2.58z"/>
	<path class="st16" d="M1.85,3.06c0.02,0,0.03,0,0.02-0.02c-0.01-0.01,0.03-0.02,0-0.03c-0.01,0,0-0.01,0-0.01
		c0.02,0,0.02-0.02,0.04-0.02c0,0,0,0.01,0,0.01C1.92,3,1.92,3.01,1.94,3.02c0,0,0,0,0,0c0,0.01-0.01,0.01-0.01,0.02
		C1.9,3.08,1.9,3.08,1.85,3.06z"/>
	<path class="st25" d="M2.68,1.04c0,0.02-0.01,0.03-0.03,0.03c-0.02,0-0.05-0.01-0.04-0.03c0-0.02,0-0.04,0.02-0.04
		C2.65,1,2.68,1.03,2.68,1.04z"/>
	<path class="st12" d="M0.96,2.79C0.96,2.79,0.95,2.79,0.96,2.79c-0.01,0-0.02,0.01-0.02,0.01c-0.05,0-0.07,0.03-0.08,0.07
		c0,0.01,0,0.02,0,0.03c-0.01,0-0.02,0-0.02,0c0,0-0.02-0.01,0-0.01c0.02,0,0.02-0.01,0.01-0.01C0.83,2.84,0.85,2.82,0.84,2.79
		C0.83,2.77,0.85,2.76,0.87,2.77c0.02,0.01,0.05,0,0.07,0.01C0.95,2.78,0.95,2.78,0.96,2.79z"/>
	<path class="st8" d="M0.24,1.58c0,0.02-0.01,0.04-0.03,0.03c-0.02,0-0.03-0.01-0.03-0.03c0-0.02,0.02-0.04,0.04-0.04
		C0.23,1.55,0.23,1.56,0.24,1.58z"/>
	<path class="st4" d="M1.35,3.34c0.04-0.01,0.06-0.01,0.07,0.01C1.44,3.38,1.44,3.4,1.41,3.43c-0.01,0-0.03,0.01-0.03-0.01
		c0.01-0.03,0-0.05-0.03-0.06C1.35,3.36,1.35,3.35,1.35,3.34z"/>
	<path class="st19" d="M1.28,2.93C1.29,2.92,1.3,2.91,1.31,2.91c0.02,0,0.04-0.01,0.05,0.02c0,0.03-0.01,0.05-0.03,0.05
		c-0.01,0-0.03,0.01-0.04-0.01C1.29,2.96,1.3,2.95,1.28,2.93z"/>
	<path class="st26" d="M1.35,3.34c0,0,0,0.01,0,0.01c0.01,0,0.03-0.01,0.04,0.01c0.01,0.02-0.01,0.03,0,0.05c0,0-0.01,0-0.01,0.01
		c0,0,0.01,0,0.02,0C1.39,3.44,1.37,3.43,1.35,3.44c0-0.02,0-0.04-0.03-0.04C1.32,3.37,1.33,3.36,1.35,3.34z"/>
	<path class="st2" d="M0.1,2.3C0.08,2.31,0.05,2.31,0.03,2.32C0,2.32,0,2.3,0,2.29c0-0.02,0.01-0.02,0.03-0.02c0.01,0,0.01,0,0.02,0
		C0.08,2.24,0.09,2.28,0.1,2.3z"/>
	<path class="st27" d="M1.67,0.03C1.68,0.02,1.68,0,1.69,0.01c0.02,0,0.01,0.02,0.01,0.03c0,0.01,0.01,0.02,0.01,0.03
		c0,0.02-0.01,0.03-0.03,0.03c-0.01,0-0.02,0-0.03-0.01c-0.02-0.01-0.02-0.02,0-0.03C1.66,0.06,1.66,0.05,1.67,0.03z"/>
	<path class="st20" d="M1.16,0.92c0-0.03,0.02-0.03,0.04-0.02c0.01,0.01,0.02,0.01,0.03,0.02c0.01,0.02-0.03,0.01-0.02,0.03
		c0,0.01-0.02,0.03-0.04,0.02C1.17,0.95,1.17,0.93,1.16,0.92z"/>
	<path class="st28" d="M2.87,3.38c0,0.02,0.02,0.03,0,0.05C2.85,3.45,2.83,3.48,2.84,3.51c-0.04-0.04-0.04-0.05,0-0.09
		C2.85,3.41,2.85,3.39,2.87,3.38z"/>
	<path class="st4" d="M1.89,1.86c0.03,0.01,0.02,0,0.02,0.03c0,0.01,0.01,0.03,0.01,0.03c0.02,0.01,0,0.02-0.01,0.03
		C1.9,1.93,1.87,1.91,1.88,1.87C1.88,1.86,1.88,1.86,1.89,1.86z"/>
	<path class="st20" d="M2.25,1.47c-0.02,0-0.03,0-0.05,0.02c0-0.03,0.03-0.05,0.01-0.07C2.22,1.42,2.24,1.41,2.25,1.4
		c0.02,0.01,0.04,0.04,0.06,0.05c0,0.01-0.01,0.01-0.02,0.02C2.28,1.47,2.27,1.47,2.25,1.47z"/>
	<path class="st29" d="M1.69,1.06c0,0.02-0.01,0.03-0.03,0.03c-0.03,0-0.03-0.02-0.03-0.04c0-0.02,0.02-0.03,0.03-0.03
		C1.68,1.02,1.69,1.03,1.69,1.06z"/>
	<path class="st20" d="M2.97,2.07C2.95,2.06,2.96,2.05,2.94,2.04c-0.01-0.01-0.02-0.01,0-0.03C2.96,1.99,2.98,2,2.99,2.01
		c0.01,0.01,0,0.02,0,0.03C2.99,2.05,2.98,2.06,2.97,2.07z"/>
	<path class="st30" d="M2.13,3.85c0-0.01-0.02-0.03,0-0.03c0.04-0.01,0.03-0.04,0.04-0.06c0.01,0.01,0.01,0.02,0.01,0.03
		c0,0.01-0.01,0.02,0.01,0.04c0.01,0.01,0,0.04-0.02,0.04C2.14,3.87,2.14,3.85,2.13,3.85z"/>
	<path class="st22" d="M0.1,2.3C0.1,2.29,0.08,2.29,0.07,2.27c0-0.01-0.02,0-0.03,0C0.04,2.26,0.03,2.25,0.02,2.24
		c0.02,0,0.04,0.01,0.06-0.01c0.01-0.01,0.01,0,0.02,0.01C0.11,2.26,0.12,2.28,0.1,2.3z"/>
	<path class="st4" d="M2.54,1.17c0.01,0,0.01-0.02,0.02-0.01C2.58,1.17,2.6,1.19,2.59,1.2c-0.01,0.01,0,0.04-0.02,0.04
		C2.55,1.22,2.54,1.2,2.54,1.17z"/>
	<path class="st20" d="M0.7,1.26c0.02-0.02,0.04-0.01,0.05,0.01c0.01,0.01,0.01,0.02,0,0.03C0.74,1.31,0.73,1.31,0.72,1.31
		c-0.01,0-0.01,0-0.02-0.01C0.69,1.29,0.69,1.27,0.7,1.26z"/>
	<path class="st20" d="M0.98,1.72c0-0.02,0-0.03,0.02-0.03c0.02,0,0.03,0.01,0.03,0.03c0,0.01-0.01,0.03-0.02,0.03
		C0.99,1.76,0.98,1.75,0.98,1.72z"/>
	<path class="st21" d="M1.49,2.02C1.47,2.01,1.46,2,1.46,1.98c0-0.02,0.02-0.01,0.03-0.01c0.02,0,0.04,0,0.03,0.03
		C1.52,2.01,1.51,2.02,1.49,2.02z"/>
	<path class="st6" d="M2.43,2.34c0.04-0.01,0.04-0.01,0.04,0.03c0,0.01,0,0.01,0.01,0.02c0,0,0,0.01,0,0.01
		c-0.01,0-0.02-0.02-0.04-0.02C2.42,2.36,2.42,2.35,2.43,2.34z"/>
	<path class="st31" d="M2.02,2.74C2.01,2.74,2,2.72,2,2.71C2.02,2.7,2.04,2.7,2.06,2.68c0.01,0.02,0,0.04,0.02,0.04
		c0,0.02-0.01,0.02-0.02,0.02C2.04,2.74,2.03,2.73,2.02,2.74z"/>
	<path class="st12" d="M0.39,2.31C0.38,2.3,0.36,2.29,0.36,2.27c0-0.02,0.02-0.02,0.03-0.03c0.02,0,0.02,0.01,0.02,0.03
		C0.42,2.3,0.4,2.3,0.39,2.31z"/>
	<path class="st28" d="M1.04,2.38C1.02,2.39,1,2.4,0.99,2.37c-0.01-0.03,0-0.04,0.03-0.03C1.04,2.34,1.06,2.35,1.04,2.38z"/>
	<path class="st10" d="M2.16,2.68c0,0,0,0.01-0.01,0.01c-0.02,0-0.03,0.01-0.04,0.02c0,0-0.01,0-0.01,0c0,0,0-0.01,0-0.01
		c0.01-0.01,0.02-0.03,0.02-0.04c0.01-0.01,0.02-0.01,0.03-0.01C2.16,2.65,2.16,2.66,2.16,2.68z"/>
	<path class="st32" d="M1.05,3.25c0.01-0.01,0.01-0.03,0.03-0.03c0.02,0,0.03,0.01,0.02,0.03c0,0.02-0.01,0.03-0.03,0.02
		C1.06,3.27,1.05,3.26,1.05,3.25z"/>
	<path class="st33" d="M0.5,2.45c0.01-0.01,0.02-0.01,0.02,0C0.53,2.47,0.55,2.48,0.55,2.5c0,0.01-0.01,0.01-0.02,0.02
		c-0.01,0-0.02-0.01-0.03-0.01C0.49,2.49,0.52,2.47,0.5,2.45z"/>
	<path class="st31" d="M2.31,1.45c-0.04,0-0.05-0.03-0.06-0.05c0.01-0.01,0.01-0.03,0.03-0.01C2.29,1.41,2.3,1.43,2.31,1.45z"/>
	<path class="st34" d="M1.46,2.39c0.01,0,0.03,0,0.04,0c0.01,0,0.02,0.01,0.02,0.02c0,0.01-0.01,0.02-0.02,0.02
		c-0.01,0-0.03,0-0.03-0.01C1.47,2.41,1.45,2.4,1.46,2.39z"/>
	<path class="st16" d="M1.93,2.98c0-0.01,0.01-0.03-0.02-0.03c-0.02-0.01-0.04,0-0.07,0c0.03-0.01,0.05-0.03,0.08,0
		c0.03,0.03,0.04,0.05,0.01,0.08l0,0C1.93,3.01,1.94,2.99,1.93,2.98z"/>
	<path class="st22" d="M1.12,2.38c0-0.01,0-0.02,0.01-0.01c0.02,0,0.04,0.02,0.04,0.04c0,0.02-0.01,0.03-0.03,0.03
		C1.13,2.42,1.12,2.4,1.12,2.38z"/>
	<path class="st35" d="M1.08,2.34C1.1,2.35,1.11,2.36,1.1,2.38c-0.02,0.03-0.03,0.01-0.05,0c0,0,0,0,0-0.01c0,0,0,0,0,0
		C1.05,2.35,1.07,2.34,1.08,2.34z"/>
	<path class="st4" d="M1.33,3.4c0.01,0,0.02-0.03,0.04-0.01c0.01,0.02,0,0.03-0.01,0.05c-0.01,0.01-0.02,0.01-0.02,0
		C1.34,3.42,1.32,3.41,1.33,3.4z"/>
	<path class="st36" d="M2.7,1.37c0,0.02-0.01,0.03-0.02,0.03c-0.01,0-0.02,0-0.02-0.02c0-0.02,0.01-0.03,0.03-0.03
		C2.69,1.35,2.7,1.36,2.7,1.37z"/>
	<path class="st18" d="M0.08,1.35C0.06,1.37,0.04,1.37,0.04,1.34C0.03,1.32,0.04,1.31,0.07,1.31C0.08,1.32,0.08,1.34,0.08,1.35z"/>
	<path class="st37" d="M1.28,2.23c0,0.01-0.02,0.02-0.03,0.02c-0.01,0-0.02,0.01-0.02,0c0-0.01-0.01-0.02,0-0.03
		c0.01,0,0.02-0.02,0.03-0.02C1.29,2.21,1.27,2.22,1.28,2.23z"/>
	<path class="st38" d="M2.11,0.81c-0.01,0-0.01,0-0.02,0c0-0.01-0.02-0.01-0.01-0.02C2.09,0.78,2.1,0.76,2.12,0.77
		c0.01,0,0.02,0.01,0.01,0.02C2.12,0.8,2.12,0.81,2.11,0.81z"/>
	<path class="st5" d="M2.34,3.95C2.33,3.93,2.32,3.92,2.3,3.92C2.29,3.89,2.32,3.9,2.33,3.9C2.35,3.89,2.35,3.9,2.35,3.91
		C2.35,3.92,2.35,3.93,2.34,3.95C2.35,3.94,2.35,3.94,2.34,3.95z"/>
	<path class="st32" d="M0.98,1.47c0,0.02,0.01,0.04,0.02,0.05c-0.02,0.01-0.04,0-0.04-0.02c0-0.01-0.01,0-0.02,0
		C0.94,1.48,0.95,1.47,0.98,1.47C0.97,1.47,0.97,1.47,0.98,1.47z"/>
	<path class="st28" d="M2.9,3.52C2.91,3.5,2.92,3.49,2.92,3.48c0-0.01,0-0.02,0.01-0.03c0.02,0,0.02,0.02,0.03,0.02
		c-0.01,0-0.02,0.01-0.02,0.01C2.94,3.52,2.92,3.51,2.9,3.52z"/>
	<path class="st39" d="M3.5,1.97c0,0.01-0.01,0.02-0.02,0.02c-0.02,0-0.02-0.02-0.02-0.03c0-0.01,0.01-0.01,0.02-0.01
		C3.49,1.94,3.5,1.95,3.5,1.97z"/>
	<path class="st40" d="M2.69,2.56c0,0.02,0,0.04-0.01,0.06c-0.01,0-0.02,0-0.03,0c-0.01,0-0.02,0-0.02-0.01
		c0-0.01,0.01-0.01,0.02-0.01C2.67,2.6,2.67,2.58,2.69,2.56C2.68,2.56,2.68,2.56,2.69,2.56z"/>
	<path class="st37" d="M1.81,2.6c-0.01,0-0.02-0.01-0.02-0.02c0-0.01,0.01-0.02,0.02-0.02c0.01,0,0.02,0.01,0.02,0.03
		C1.83,2.59,1.82,2.6,1.81,2.6z"/>
	<path class="st22" d="M0.98,1.47C0.97,1.47,0.97,1.47,0.98,1.47c0-0.01,0-0.02-0.01-0.03c-0.01,0-0.01-0.01,0-0.02
		c0.01-0.01,0.01-0.01,0.03-0.01C1,1.42,1,1.42,0.99,1.44C0.98,1.44,1,1.47,0.98,1.47z"/>
	<path class="st24" d="M0.32,1.36c-0.02,0.01,0,0.05-0.04,0.04c-0.01,0-0.01-0.01-0.01-0.02C0.28,1.35,0.31,1.37,0.32,1.36z"/>
	<path class="st8" d="M1.03,3.26c0.01,0,0.02,0.02,0.02,0.03c0,0.01,0,0.02-0.02,0.02c-0.01,0-0.02,0-0.03-0.02
		C1.01,3.27,1.02,3.26,1.03,3.26z"/>
	<path class="st27" d="M2.03,3.32C2.02,3.3,2.04,3.3,2.04,3.28c0.01,0,0.02,0,0.03,0c0,0.01,0,0.01,0,0.01c0,0.02,0,0.04-0.03,0.02
		C2.04,3.31,2.03,3.32,2.03,3.32z"/>
	<path class="st21" d="M2.02,2.74c0.01-0.02,0.04,0,0.05-0.02c0.03,0.02-0.01,0.03,0,0.04c0,0.01-0.02,0.01-0.02,0
		C2.05,2.74,2.04,2.74,2.02,2.74z"/>
	<path class="st31" d="M1.51,1.22c0,0.01,0.01,0.02-0.01,0.02c-0.01,0-0.02-0.01-0.02-0.03C1.48,1.2,1.49,1.2,1.5,1.2
		C1.52,1.2,1.52,1.21,1.51,1.22z"/>
	<path class="st3" d="M1.28,2.93c0.01,0,0.02,0,0.02,0.01c0,0.02,0,0.03-0.03,0.03C1.27,2.96,1.27,2.95,1.28,2.93z"/>
	<path class="st9" d="M0.08,1.35C0.06,1.35,0.07,1.33,0.07,1.31C0.11,1.31,0.11,1.31,0.08,1.35z"/>
	<path class="st41" d="M0.69,2.77c0.01-0.01,0.01-0.02,0-0.03c0.01,0,0.01-0.01,0.02-0.01c0.01,0,0.02,0,0.02,0.01
		c0,0.01-0.01,0.02-0.02,0.01C0.71,2.76,0.7,2.77,0.69,2.77z"/>
	<path class="st42" d="M0.28,1.46c0,0.01-0.01,0.02-0.02,0.02c-0.01,0-0.02-0.01-0.02-0.03c0-0.01,0-0.02,0.01-0.01
		C0.26,1.44,0.28,1.45,0.28,1.46z"/>
	<path class="st43" d="M1.05,2.37C1.05,2.37,1.05,2.38,1.05,2.37C1.04,2.38,1.04,2.38,1.05,2.37c0-0.02-0.02-0.03-0.04-0.04
		c0.01-0.01,0.03-0.03,0.05-0.01C1.07,2.34,1.05,2.36,1.05,2.37z"/>
	<path class="st10" d="M2.95,2.86c0.01,0,0.01,0,0.02,0C2.92,2.87,2.96,2.9,2.95,2.92C2.92,2.9,2.92,2.89,2.95,2.86z"/>
	<path class="st44" d="M1.12,2.38C1.13,2.4,1.15,2.41,1.14,2.43C1.11,2.42,1.1,2.41,1.12,2.38z"/>
	<path class="st20" d="M1.67,0.03c0.02,0.02,0,0.02-0.01,0.03C1.65,0.08,1.64,0.07,1.63,0.06C1.65,0.05,1.66,0.04,1.67,0.03z"/>
	<path class="st12" d="M0.9,1.58c0.02,0.02,0.03,0.04,0,0.05C0.89,1.62,0.89,1.6,0.9,1.58z"/>
	<path class="st9" d="M1.19,2.24c0.02,0,0.03,0.01,0.01,0.03c0,0,0,0.01,0,0.02C1.18,2.27,1.18,2.26,1.19,2.24z"/>
	<path class="st45" d="M2.28,1.78c-0.01,0-0.01-0.01-0.01-0.02c0-0.01,0.01-0.02,0.02-0.02c0.01,0,0.01,0,0.01,0.01
		C2.3,1.77,2.28,1.78,2.28,1.78z"/>
	<path class="st12" d="M2.17,3.57C2.16,3.6,2.16,3.62,2.19,3.63C2.15,3.62,2.14,3.6,2.17,3.57C2.17,3.57,2.17,3.57,2.17,3.57z"/>
	<path class="st32" d="M0.11,1.3C0.1,1.3,0.1,1.29,0.1,1.28c0-0.01,0.01-0.02,0.02-0.02c0.01,0,0.01,0.01,0.01,0.01
		C0.13,1.29,0.12,1.3,0.11,1.3z"/>
	<path class="st13" d="M1.16,0.92c0.03,0.01,0.03,0.02,0.02,0.05C1.14,0.96,1.16,0.94,1.16,0.92z"/>
	<path class="st46" d="M0.43,1.35c-0.01-0.02,0-0.03,0.02-0.04C0.46,1.33,0.44,1.34,0.43,1.35z"/>
	<path class="st27" d="M0.54,1.46c-0.01,0-0.02-0.01-0.02-0.01c0-0.01,0.01-0.02,0.02-0.02c0.01,0,0.01,0,0.01,0.01
		C0.55,1.45,0.54,1.45,0.54,1.46z"/>
	<path class="st1" d="M1.05,2.37c0-0.02,0.01-0.03,0.01-0.05c0.01,0,0.02,0.01,0.03,0.01C1.08,2.35,1.06,2.36,1.05,2.37z"/>
	<path class="st47" d="M0.77,1.44c0,0.01-0.01,0.01-0.02,0.01c-0.01,0-0.01,0-0.01-0.01c0-0.01,0.01-0.01,0.01-0.01
		C0.77,1.43,0.77,1.43,0.77,1.44z"/>
	<path class="st18" d="M0.06,1.43C0.05,1.41,0.04,1.4,0.05,1.39c0-0.01,0.02,0,0.02,0C0.08,1.41,0.07,1.41,0.06,1.43z"/>
	<path class="st8" d="M2.75,1.52c0,0.01-0.01,0.01-0.02,0.01c-0.01,0-0.01-0.01-0.01-0.01c0-0.01,0.01-0.01,0.02-0.01
		C2.75,1.51,2.75,1.51,2.75,1.52z"/>
	<path class="st48" d="M0.7,1.26c0,0.01,0,0.03,0,0.04C0.67,1.28,0.67,1.27,0.7,1.26z"/>
	<path class="st49" d="M0.71,0.26c0,0.01,0,0.02-0.02,0.02c-0.01,0-0.01-0.01-0.01-0.02c0-0.01,0-0.02,0.01-0.01
		C0.71,0.25,0.71,0.25,0.71,0.26z"/>
	<path class="st34" d="M1.45,0.05c-0.01,0-0.01,0-0.02,0c-0.01,0-0.01-0.01-0.01-0.02c0-0.01,0.01,0,0.02,0
		C1.45,0.03,1.45,0.04,1.45,0.05z"/>
	<path class="st2" d="M2.25,1.47c0.01-0.03,0.02-0.01,0.04,0C2.28,1.48,2.27,1.49,2.25,1.47z"/>
	<path class="st50" d="M1.25,0.57c0-0.01,0.01-0.01,0.01-0.01c0,0,0.01,0,0.01,0.01c0,0.01-0.01,0.01-0.01,0.02
		C1.25,0.58,1.25,0.57,1.25,0.57z"/>
	<path class="st12" d="M3.83,1.97c-0.01,0-0.01-0.01-0.01-0.02c0,0,0-0.01,0.01-0.01c0.01,0,0.01,0.01,0.01,0.01
		C3.85,1.97,3.84,1.97,3.83,1.97z"/>
	<path class="st51" d="M2.31,1.57c0,0.01-0.01,0.01-0.01,0.01c-0.01,0-0.01-0.01-0.01-0.02c0,0,0.01-0.01,0.01,0
		C2.3,1.56,2.31,1.56,2.31,1.57z"/>
	<path class="st52" d="M2.83,2.6c0.01,0,0.02,0.01,0.03,0.01c0.01,0,0.01,0.01,0.01,0.03c0,0.01-0.01,0.01-0.01,0.01
		c-0.01,0-0.02,0-0.02-0.02C2.83,2.61,2.82,2.61,2.83,2.6z"/>
	<path class="st52" d="M2.8,2.64c0-0.01,0-0.02,0.01-0.03c0.01,0.01,0.02,0.01,0.03,0.02C2.83,2.67,2.81,2.64,2.8,2.64z"/>
	<path class="st4" d="M2.11,3.74C2.1,3.75,2.09,3.77,2.07,3.75c-0.01-0.01-0.01-0.01,0-0.02C2.09,3.72,2.09,3.75,2.11,3.74z"/>
	<path class="st28" d="M0.51,1.22c0.01,0.01,0.02-0.02,0.04,0c0,0.01,0,0.02,0,0.02C0.53,1.25,0.52,1.24,0.51,1.22z"/>
	<path class="st36" d="M0.53,2.52c0-0.01,0.01-0.01,0.02-0.02c0.01,0,0.02,0.01,0.02,0.02C0.56,2.52,0.55,2.52,0.53,2.52z"/>
	<path class="st53" d="M1.93,2.98c0.04,0.01,0,0.03,0.01,0.04c-0.04,0-0.04-0.01-0.03-0.04C1.92,2.98,1.92,2.98,1.93,2.98z"/>
	<path class="st23" d="M0.86,2.87C0.84,2.82,0.87,2.79,0.91,2.79c0.01,0,0.02,0,0.04,0c0,0.02,0.01,0.03,0.03,0.03
		C1,2.82,1,2.84,0.99,2.84c-0.02,0-0.02,0.03-0.05,0.02C0.92,2.85,0.89,2.87,0.86,2.87z"/>
	<path class="st54" d="M2.13,0.84c0,0.01-0.01,0.02-0.01,0.03c0,0.01,0,0.02-0.01,0.02c-0.02,0-0.02-0.01-0.03-0.02
		c0-0.01,0-0.02,0.02-0.02C2.1,0.85,2.11,0.84,2.13,0.84z"/>
</g>
</svg>
